<!-- SVG Icon Sprite — hidden, referenced via <use> -->
<svg xmlns="http://www.w3.org/2000/svg" style="display:none">

  <!-- Scissors (Hairstyling) -->
  <symbol id="icon-scissors" viewBox="0 0 24 24" fill="none" stroke="currentColor" stroke-width="1.8" stroke-linecap="round" stroke-linejoin="round">
    <circle cx="6" cy="6" r="3"/><circle cx="6" cy="18" r="3"/><line x1="20" y1="4" x2="8.12" y2="15.88"/><line x1="14.47" y1="14.48" x2="20" y2="20"/><line x1="8.12" y1="8.12" x2="12" y2="12"/>
  </symbol>

  <!-- Palette/Brush (Makeup) -->
  <symbol id="icon-makeup" viewBox="0 0 24 24" fill="none" stroke="currentColor" stroke-width="1.8" stroke-linecap="round" stroke-linejoin="round">
    <path d="M12 2L2 7l10 5 10-5-10-5z"/><path d="M2 17l10 5 10-5"/><path d="M2 12l10 5 10-5"/>
  </symbol>

  <!-- Crown (Wigs) -->
  <symbol id="icon-crown" viewBox="0 0 24 24" fill="none" stroke="currentColor" stroke-width="1.8" stroke-linecap="round" stroke-linejoin="round">
    <path d="M2 20h20"/><path d="M4 20V9l4 3 4-6 4 6 4-3v11"/>
  </symbol>

  <!-- Dress (Ladies Wear) -->
  <symbol id="icon-dress" viewBox="0 0 24 24" fill="none" stroke="currentColor" stroke-width="1.8" stroke-linecap="round" stroke-linejoin="round">
    <path d="M9 2h6l-1 7h-4L9 2z"/><path d="M10 9c-3 2-5 5-5 9h14c0-4-2-7-5-9"/><path d="M5 18l-1 4h16l-1-4"/>
  </symbol>

  <!-- Sparkles (Styling) -->
  <symbol id="icon-sparkles" viewBox="0 0 24 24" fill="none" stroke="currentColor" stroke-width="1.8" stroke-linecap="round" stroke-linejoin="round">
    <path d="M12 3l1.5 5.5L19 10l-5.5 1.5L12 17l-1.5-5.5L5 10l5.5-1.5L12 3z"/><path d="M19 15l.5 2 2 .5-2 .5-.5 2-.5-2-2-.5 2-.5.5-2z"/>
  </symbol>

  <!-- Diamond (Accessories) -->
  <symbol id="icon-diamond" viewBox="0 0 24 24" fill="none" stroke="currentColor" stroke-width="1.8" stroke-linecap="round" stroke-linejoin="round">
    <path d="M6 3h12l4 6-10 13L2 9l4-6z"/><path d="M2 9h20"/><path d="M10 3l-2 6 4 13"/><path d="M14 3l2 6-4 13"/>
  </symbol>

  <!-- Phone -->
  <symbol id="icon-phone" viewBox="0 0 24 24" fill="none" stroke="currentColor" stroke-width="1.8" stroke-linecap="round" stroke-linejoin="round">
    <path d="M22 16.92v3a2 2 0 01-2.18 2 19.79 19.79 0 01-8.63-3.07 19.5 19.5 0 01-6-6 19.79 19.79 0 01-3.07-8.67A2 2 0 014.11 2h3a2 2 0 012 1.72c.127.96.361 1.903.7 2.81a2 2 0 01-.45 2.11L8.09 9.91a16 16 0 006 6l1.27-1.27a2 2 0 012.11-.45c.907.339 1.85.573 2.81.7A2 2 0 0122 16.92z"/>
  </symbol>

  <!-- Mail -->
  <symbol id="icon-mail" viewBox="0 0 24 24" fill="none" stroke="currentColor" stroke-width="1.8" stroke-linecap="round" stroke-linejoin="round">
    <path d="M4 4h16c1.1 0 2 .9 2 2v12c0 1.1-.9 2-2 2H4c-1.1 0-2-.9-2-2V6c0-1.1.9-2 2-2z"/><polyline points="22,6 12,13 2,6"/>
  </symbol>

  <!-- Globe -->
  <symbol id="icon-globe" viewBox="0 0 24 24" fill="none" stroke="currentColor" stroke-width="1.8" stroke-linecap="round" stroke-linejoin="round">
    <circle cx="12" cy="12" r="10"/><line x1="2" y1="12" x2="22" y2="12"/><path d="M12 2a15.3 15.3 0 014 10 15.3 15.3 0 01-4 10 15.3 15.3 0 01-4-10 15.3 15.3 0 014-10z"/>
  </symbol>

  <!-- Map Pin -->
  <symbol id="icon-map-pin" viewBox="0 0 24 24" fill="none" stroke="currentColor" stroke-width="1.8" stroke-linecap="round" stroke-linejoin="round">
    <path d="M21 10c0 7-9 13-9 13s-9-6-9-13a9 9 0 0118 0z"/><circle cx="12" cy="10" r="3"/>
  </symbol>

  <!-- Clock -->
  <symbol id="icon-clock" viewBox="0 0 24 24" fill="none" stroke="currentColor" stroke-width="1.8" stroke-linecap="round" stroke-linejoin="round">
    <circle cx="12" cy="12" r="10"/><polyline points="12 6 12 12 16 14"/>
  </symbol>

  <!-- Instagram -->
  <symbol id="icon-instagram" viewBox="0 0 24 24" fill="none" stroke="currentColor" stroke-width="1.8" stroke-linecap="round" stroke-linejoin="round">
    <rect x="2" y="2" width="20" height="20" rx="5" ry="5"/><path d="M16 11.37A4 4 0 1112.63 8 4 4 0 0116 11.37z"/><line x1="17.5" y1="6.5" x2="17.51" y2="6.5"/>
  </symbol>

  <!-- WhatsApp / Message Circle -->
  <symbol id="icon-whatsapp" viewBox="0 0 24 24" fill="none" stroke="currentColor" stroke-width="1.8" stroke-linecap="round" stroke-linejoin="round">
    <path d="M21 11.5a8.38 8.38 0 01-.9 3.8 8.5 8.5 0 01-7.6 4.7 8.38 8.38 0 01-3.8-.9L3 21l1.9-5.7a8.38 8.38 0 01-.9-3.8 8.5 8.5 0 014.7-7.6 8.38 8.38 0 013.8-.9h.5a8.48 8.48 0 018 8v.5z"/>
  </symbol>

  <!-- TikTok / Music -->
  <symbol id="icon-tiktok" viewBox="0 0 24 24" fill="none" stroke="currentColor" stroke-width="1.8" stroke-linecap="round" stroke-linejoin="round">
    <path d="M9 18V5l12-2v13"/><circle cx="6" cy="18" r="3"/><circle cx="18" cy="16" r="3"/>
  </symbol>

  <!-- Facebook / User -->
  <symbol id="icon-facebook" viewBox="0 0 24 24" fill="none" stroke="currentColor" stroke-width="1.8" stroke-linecap="round" stroke-linejoin="round">
    <path d="M18 2h-3a5 5 0 00-5 5v3H7v4h3v8h4v-8h3l1-4h-4V7a1 1 0 011-1h3z"/>
  </symbol>

  <!-- Target (Mission) -->
  <symbol id="icon-target" viewBox="0 0 24 24" fill="none" stroke="currentColor" stroke-width="1.8" stroke-linecap="round" stroke-linejoin="round">
    <circle cx="12" cy="12" r="10"/><circle cx="12" cy="12" r="6"/><circle cx="12" cy="12" r="2"/>
  </symbol>

  <!-- Eye (Vision) -->
  <symbol id="icon-eye" viewBox="0 0 24 24" fill="none" stroke="currentColor" stroke-width="1.8" stroke-linecap="round" stroke-linejoin="round">
    <path d="M1 12s4-8 11-8 11 8 11 8-4 8-11 8-11-8-11-8z"/><circle cx="12" cy="12" r="3"/>
  </symbol>

  <!-- Heart (Values) -->
  <symbol id="icon-heart" viewBox="0 0 24 24" fill="none" stroke="currentColor" stroke-width="1.8" stroke-linecap="round" stroke-linejoin="round">
    <path d="M20.84 4.61a5.5 5.5 0 00-7.78 0L12 5.67l-1.06-1.06a5.5 5.5 0 00-7.78 7.78l1.06 1.06L12 21.23l7.78-7.78 1.06-1.06a5.5 5.5 0 000-7.78z"/>
  </symbol>

  <!-- Star -->
  <symbol id="icon-star" viewBox="0 0 24 24" fill="none" stroke="currentColor" stroke-width="1.8" stroke-linecap="round" stroke-linejoin="round">
    <polygon points="12 2 15.09 8.26 22 9.27 17 14.14 18.18 21.02 12 17.77 5.82 21.02 7 14.14 2 9.27 8.91 8.26 12 2"/>
  </symbol>

</svg>
